{
  "accessors": [
    {
      "bufferView": 2,
      "componentType": 5126,
      "count": 1572,
      "max": [
        11.356103897094727,
        12.421430587768555,
        9.352996826171875
      ],
      "min": [
        -11.344554901123047,
        2.7815639972686768,
        8.452940940856934
      ],
      "type": "VEC3"
    },
    {
      "bufferView": 2,
      "byteOffset": 18864,
      "componentType": 5126,
      "count": 1572,
      "max": [
        1.0,
        1.0,
        1.0
      ],
      "min": [
        -1.0,
        -1.0,
        -1.7155424529846641e-06
      ],
      "type": "VEC3"
    },
    {
      "bufferView": 1,
      "componentType": 5126,
      "count": 1572,
      "max": [
        0.9999498128890991,
        1.0
      ],
      "min": [
        0.0,
        0.0
      ],
      "type": "VEC2"
    },
    {
      "bufferView": 0,
      "componentType": 5125,
      "count": 4650,
      "type": "SCALAR"
    },
    {
      "bufferView": 2,
      "byteOffset": 37728,
      "componentType": 5126,
      "count": 3300,
      "max": [
        11.406105995178223,
        12.471121788024902,
        8.452997207641602
      ],
      "min": [
        -11.394280433654785,
        2.731563091278076,
        7.852940082550049
      ],
      "type": "VEC3"
    },
    {
      "bufferView": 2,
      "byteOffset": 77328,
      "componentType": 5126,
      "count": 3300,
      "max": [
        1.0,
        1.0,
        1.0
      ],
      "min": [
        -1.0,
        -1.0,
        -1.0
      ],
      "type": "VEC3"
    },
    {
      "bufferView": 1,
      "byteOffset": 12576,
      "componentType": 5126,
      "count": 3300,
      "max": [
        0.9999498128890991,
        1.0
      ],
      "min": [
        0.0,
        0.0
      ],
      "type": "VEC2"
    },
    {
      "bufferView": 0,
      "byteOffset": 18600,
      "componentType": 5125,
      "count": 10758,
      "type": "SCALAR"
    }
  ],
  "asset": {
    "extras": {
      "author": "David Tena C. (https://sketchfab.com/DavidTenaC.20)",
      "license": "CC-BY-4.0 (http://creativecommons.org/licenses/by/4.0/)",
      "source": "https://sketchfab.com/3d-models/star-wars-logo-3cb31e7865994304bebad83c85f3c5ee",
      "title": "Star Wars - Logo"
    },
    "generator": "Sketchfab-12.68.0",
    "version": "2.0"
  },
  "bufferViews": [
    {
      "buffer": 0,
      "byteLength": 61632,
      "name": "floatBufferViews",
      "target": 34963
    },
    {
      "buffer": 0,
      "byteLength": 38976,
      "byteOffset": 61632,
      "byteStride": 8,
      "name": "floatBufferViews",
      "target": 34962
    },
    {
      "buffer": 0,
      "byteLength": 116928,
      "byteOffset": 100608,
      "byteStride": 12,
      "name": "floatBufferViews",
      "target": 34962
    }
  ],
  "buffers": [
    {
      "byteLength": 217536,
      "uri": "scene.bin"
    }
  ],
  "extensionsUsed": [
    "KHR_materials_clearcoat"
  ],
  "materials": [
    {
      "doubleSided": true,
      "emissiveFactor": [
        0.17539752753005786,
        0.08249269854954902,
        0.0
      ],
      "extensions": {
        "KHR_materials_clearcoat": {
          "clearcoatFactor": 0.19019570587117612,
          "clearcoatRoughnessFactor": 0.36044081322439675
        }
      },
      "name": "Amarillo_Glow",
      "pbrMetallicRoughness": {
        "baseColorFactor": [
          1.0,
          0.7499999999999999,
          0.0,
          1.0
        ],
        "metallicFactor": 0.0,
        "roughnessFactor": 0.35
      }
    },
    {
      "doubleSided": true,
      "extensions": {
        "KHR_materials_clearcoat": {
          "clearcoatFactor": 0.1,
          "clearcoatRoughnessFactor": 0.04
        }
      },
      "name": "Base_Negro",
      "pbrMetallicRoughness": {
        "baseColorFactor": [
          0.0,
          0.0,
          0.0,
          1.0
        ],
        "metallicFactor": 0.1,
        "roughnessFactor": 0.7246817404522136
      }
    }
  ],
  "meshes": [
    {
      "name": "polySurface15_Amarillo_Glow_0",
      "primitives": [
        {
          "attributes": {
            "NORMAL": 1,
            "POSITION": 0,
            "TEXCOORD_0": 2
          },
          "indices": 3,
          "material": 0,
          "mode": 4
        }
      ]
    },
    {
      "name": "polySurface15_Base_Negro_0",
      "primitives": [
        {
          "attributes": {
            "NORMAL": 5,
            "POSITION": 4,
            "TEXCOORD_0": 6
          },
          "indices": 7,
          "material": 1,
          "mode": 4
        }
      ]
    }
  ],
  "nodes": [
    {
      "children": [
        1
      ],
      "matrix": [
        20.231576919555664,
        0.0,
        0.0,
        0.0,
        0.0,
        4.492312504113119e-15,
        -20.231576919555664,
        0.0,
        0.0,
        20.231576919555664,
        4.492312504113119e-15,
        0.0,
        0.0,
        0.0,
        0.0,
        1.0
      ],
      "name": "Sketchfab_model"
    },
    {
      "children": [
        2
      ],
      "matrix": [
        0.009999999776482582,
        0.0,
        0.0,
        0.0,
        0.0,
        0.0,
        0.009999999776482582,
        0.0,
        0.0,
        -0.009999999776482582,
        0.0,
        0.0,
        0.0,
        0.0,
        0.0,
        1.0
      ],
      "name": "23b4a0e7f9544fc89ff2e2b41190f472.fbx"
    },
    {
      "children": [
        3
      ],
      "name": "RootNode"
    },
    {
      "children": [
        4,
        5
      ],
      "matrix": [
        1.0,
        0.0,
        0.0,
        0.0,
        0.0,
        1.0,
        0.0,
        0.0,
        0.0,
        0.0,
        1.0,
        0.0,
        0.0,
        0.0,
        -9.354671478271484,
        1.0
      ],
      "name": "polySurface15"
    },
    {
      "mesh": 0,
      "name": "polySurface15_Amarillo_Glow_0"
    },
    {
      "mesh": 1,
      "name": "polySurface15_Base_Negro_0"
    }
  ],
  "scene": 0,
  "scenes": [
    {
      "name": "Sketchfab_Scene",
      "nodes": [
        0
      ]
    }
  ]
}
